<?xml version="1.0" encoding="UTF-8"?>
<svg width="72px" height="72px" viewBox="0 0 72 72" version="1.1" xmlns="http://www.w3.org/2000/svg" xmlns:xlink="http://www.w3.org/1999/xlink">
    <!-- Generator: Sketch 52.5 (67469) - http://www.bohemiancoding.com/sketch -->
    <title>Untitled 2</title>
    <desc>Created with Sketch.</desc>
    <defs>
        <linearGradient x1="98.0308675%" y1="0.160599572%" x2="58.8877062%" y2="40.7655246%" id="linearGradient-1">
            <stop stop-color="#0052CC" offset="18%"></stop>
            <stop stop-color="#2684FF" offset="100%"></stop>
        </linearGradient>
        <linearGradient x1="100.665247%" y1="0.45503212%" x2="55.4018095%" y2="44.7269807%" id="linearGradient-2">
            <stop stop-color="#0052CC" offset="18%"></stop>
            <stop stop-color="#2684FF" offset="100%"></stop>
        </linearGradient>
    </defs>
    <g id="Page-1" stroke="none" stroke-width="1" fill="none" fill-rule="evenodd">
        <g id="icon">
            <path d="M68.81,-4.4408921e-16 L34.23,-7.10542736e-15 C34.23,8.62116494 41.2188351,15.61 49.84,15.61 L56.21,15.61 L56.21,21.76 C56.2155161,30.3733562 63.1966438,37.3544839 71.81,37.36 L71.81,3 C71.81,1.34314575 70.4668542,-7.00397429e-15 68.81,-4.4408921e-16 Z" id="Path" fill="#2684FF"></path>
            <path d="M51.7,17.23 L17.12,17.23 C17.1255161,25.8433562 24.1066438,32.8244839 32.72,32.83 L39.09,32.83 L39.09,39 C39.1010357,47.6133534 46.0866395,54.5900071 54.7,54.59 L54.7,20.23 C54.7,18.5731458 53.3568542,17.23 51.7,17.23 Z" id="Path" fill="url(#linearGradient-1)"></path>
            <path d="M34.58,34.45 L0,34.45 C1.05578821e-15,43.0711649 6.98883506,50.06 15.61,50.06 L22,50.06 L22,56.21 C22.005497,64.8155588 28.9744553,71.7934632 37.58,71.81 L37.58,37.45 C37.58,35.7931458 36.2368542,34.45 34.58,34.45 Z" id="Path" fill="url(#linearGradient-2)"></path>
        </g>
    </g>
</svg>